<svg width="25" height="25" viewBox="0 0 25 25" fill="none" xmlns="http://www.w3.org/2000/svg">
<mask id="mask0_870_33" style="mask-type:alpha" maskUnits="userSpaceOnUse" x="0" y="0" width="25" height="25">
<rect x="0.109253" y="0.192383" width="24" height="24" fill="#D9D9D9"/>
</mask>
<g mask="url(#mask0_870_33)">
<path d="M7.10925 21.1924V18.1924H5.10925V16.1924H7.10925V14.1924H5.10925V12.1924H7.10925V3.19238H13.6093C15.1426 3.19238 16.4426 3.72572 17.5093 4.79238C18.5759 5.85905 19.1093 7.15905 19.1093 8.69238C19.1093 10.2257 18.5759 11.5257 17.5093 12.5924C16.4426 13.6591 15.1426 14.1924 13.6093 14.1924H9.10925V16.1924H13.1093V18.1924H9.10925V21.1924H7.10925ZM9.10925 12.1924H13.6093C14.5759 12.1924 15.4009 11.8507 16.0843 11.1674C16.7676 10.484 17.1093 9.65905 17.1093 8.69238C17.1093 7.72572 16.7676 6.90072 16.0843 6.21738C15.4009 5.53405 14.5759 5.19238 13.6093 5.19238H9.10925V12.1924Z" fill="white"/>
</g>
</svg>
