<svg width="28" height="26" viewBox="0 0 28 26" fill="none" xmlns="http://www.w3.org/2000/svg">
<path d="M14 12.4751C12.3083 12.4751 10.8646 11.8696 9.66875 10.6586C8.47292 9.44876 7.875 8.0126 7.875 6.3501C7.875 4.65843 8.47292 3.21468 9.66875 2.01885C10.8646 0.823014 12.3083 0.225098 14 0.225098C15.6917 0.225098 17.1354 0.823014 18.3313 2.01885C19.5271 3.21468 20.125 4.65843 20.125 6.3501C20.125 8.0126 19.5271 9.44876 18.3313 10.6586C17.1354 11.8696 15.6917 12.4751 14 12.4751ZM0.875 25.7751V21.8813C0.875 21.0355 1.10833 20.248 1.575 19.5188C2.04167 18.7897 2.66875 18.2209 3.45625 17.8126C5.17708 16.9668 6.92008 16.3321 8.68525 15.9086C10.4493 15.4863 12.2208 15.2751 14 15.2751C15.7792 15.2751 17.5513 15.4863 19.3165 15.9086C21.0805 16.3321 22.8229 16.9668 24.5437 17.8126C25.3312 18.2209 25.9583 18.7897 26.425 19.5188C26.8917 20.248 27.125 21.0355 27.125 21.8813V25.7751H0.875ZM3.5 23.1501H24.5V21.8813C24.5 21.5313 24.3979 21.2105 24.1938 20.9188C23.9896 20.6272 23.7125 20.3793 23.3625 20.1751C21.8458 19.4459 20.3076 18.8842 18.7478 18.4898C17.1868 18.0967 15.6042 17.9001 14 17.9001C12.3958 17.9001 10.8132 18.0967 9.25225 18.4898C7.69242 18.8842 6.15417 19.4459 4.6375 20.1751C4.2875 20.3793 4.01042 20.6272 3.80625 20.9188C3.60208 21.2105 3.5 21.5313 3.5 21.8813V23.1501ZM14 9.8501C14.9625 9.8501 15.7867 9.5071 16.4727 8.8211C17.1576 8.13627 17.5 7.3126 17.5 6.3501C17.5 5.3876 17.1576 4.56335 16.4727 3.87735C15.7867 3.19251 14.9625 2.8501 14 2.8501C13.0375 2.8501 12.2138 3.19251 11.529 3.87735C10.843 4.56335 10.5 5.3876 10.5 6.3501C10.5 7.3126 10.843 8.13627 11.529 8.8211C12.2138 9.5071 13.0375 9.8501 14 9.8501Z" fill="#FE7D00"/>
</svg>
