<svg width="32" height="32" viewBox="0 0 32 32" fill="none" xmlns="http://www.w3.org/2000/svg">
<mask id="mask0_72_351" style="mask-type:alpha" x="0" y="0" width="32" height="32">
<rect width="32" height="32" fill="#1C1B1F"/>
</mask>
<g mask="url(#mask0_72_351)">
<path d="M9.53333 34.4907C8.88889 34.4907 8.33911 34.2449 7.884 33.7533C7.428 33.2607 7.2 32.6663 7.2 31.9701C7.2 31.2739 7.428 30.6796 7.884 30.187C8.33911 29.6953 8.88889 29.4495 9.53333 29.4495C10.1778 29.4495 10.7276 29.6953 11.1827 30.187C11.6387 30.6796 11.8667 31.2739 11.8667 31.9701C11.8667 32.6663 11.6387 33.2607 11.1827 33.7533C10.7276 34.2449 10.1778 34.4907 9.53333 34.4907ZM22.4667 34.4907C21.8222 34.4907 21.2724 34.2449 20.8173 33.7533C20.3613 33.2607 20.1333 32.6663 20.1333 31.9701C20.1333 31.2739 20.3613 30.6796 20.8173 30.187C21.2724 29.6953 21.8222 29.4495 22.4667 29.4495C23.1111 29.4495 23.6609 29.6953 24.116 30.187C24.572 30.6796 24.8 31.2739 24.8 31.9701C24.8 32.6663 24.572 33.2607 24.116 33.7533C23.6609 34.2449 23.1111 34.4907 22.4667 34.4907ZM8.03333 11.7332L11.4 19.3671H20.5C20.5667 19.3671 20.6333 19.3488 20.7 19.3123C20.7667 19.2768 20.8111 19.223 20.8333 19.151L24.4333 12.1293C24.4778 12.0333 24.4778 11.9435 24.4333 11.86C24.3889 11.7755 24.3222 11.7332 24.2333 11.7332H8.03333ZM7.06667 9.57271H25.5667C26.1222 9.57271 26.5391 9.82477 26.8173 10.3289C27.0947 10.833 27.1111 11.3491 26.8667 11.8773L22.5667 20.2313C22.3667 20.6394 22.0836 20.9572 21.7173 21.1848C21.3502 21.4133 20.9556 21.5276 20.5333 21.5276H10.8L9.26667 24.5883C9.2 24.7084 9.19467 24.8284 9.25067 24.9484C9.30578 25.0684 9.4 25.1285 9.53333 25.1285H24.8V27.289H9.53333C8.64444 27.289 7.97778 26.8751 7.53333 26.0474C7.08889 25.2187 7.07778 24.3963 7.5 23.5801L9.4 19.8712L4.53333 8.85254H2V6.69202H5.8L7.06667 9.57271Z" fill="#878787"/>
</g>
</svg>
