<svg width="32" height="32" viewBox="0 0 32 32" fill="none" xmlns="http://www.w3.org/2000/svg">
<mask id="mask0_68_10" style="mask-type:alpha" maskUnits="userSpaceOnUse" x="0" y="0" width="32" height="32">
<rect width="32" height="32" fill="#1C1B1F"/>
</mask>
<g mask="url(#mask0_68_10)">
<path d="M9.53333 28.7333C8.88889 28.7333 8.33911 28.5058 7.884 28.0507C7.428 27.5947 7.2 27.0444 7.2 26.4C7.2 25.7556 7.428 25.2053 7.884 24.7493C8.33911 24.2942 8.88889 24.0667 9.53333 24.0667C10.1778 24.0667 10.7276 24.2942 11.1827 24.7493C11.6387 25.2053 11.8667 25.7556 11.8667 26.4C11.8667 27.0444 11.6387 27.5947 11.1827 28.0507C10.7276 28.5058 10.1778 28.7333 9.53333 28.7333ZM22.4667 28.7333C21.8222 28.7333 21.2724 28.5058 20.8173 28.0507C20.3613 27.5947 20.1333 27.0444 20.1333 26.4C20.1333 25.7556 20.3613 25.2053 20.8173 24.7493C21.2724 24.2942 21.8222 24.0667 22.4667 24.0667C23.1111 24.0667 23.6609 24.2942 24.116 24.7493C24.572 25.2053 24.8 25.7556 24.8 26.4C24.8 27.0444 24.572 27.5947 24.116 28.0507C23.6609 28.5058 23.1111 28.7333 22.4667 28.7333ZM8.03333 7.66667L11.4 14.7333H20.5C20.5667 14.7333 20.6333 14.7164 20.7 14.6827C20.7667 14.6498 20.8111 14.6 20.8333 14.5333L24.4333 8.03333C24.4778 7.94444 24.4778 7.86133 24.4333 7.784C24.3889 7.70578 24.3222 7.66667 24.2333 7.66667H8.03333ZM7.06667 5.66667H25.5667C26.1222 5.66667 26.5391 5.9 26.8173 6.36667C27.0947 6.83333 27.1111 7.31111 26.8667 7.8L22.5667 15.5333C22.3667 15.9111 22.0836 16.2053 21.7173 16.416C21.3502 16.6276 20.9556 16.7333 20.5333 16.7333H10.8L9.26667 19.5667C9.2 19.6778 9.19467 19.7889 9.25067 19.9C9.30578 20.0111 9.4 20.0667 9.53333 20.0667H24.8V22.0667H9.53333C8.64444 22.0667 7.97778 21.6836 7.53333 20.9173C7.08889 20.1502 7.07778 19.3889 7.5 18.6333L9.4 15.2L4.53333 5H2V3H5.8L7.06667 5.66667Z" fill="#FE7D00"/>
</g>
</svg>
