<svg width="32" height="32" viewBox="0 0 32 32" fill="none" xmlns="http://www.w3.org/2000/svg">
<mask id="mask0_75_2208" style="mask-type:alpha" maskUnits="userSpaceOnUse" x="0" y="0" width="32" height="32">
<rect width="32" height="32" fill="#D9D9D9"/>
</mask>
<g mask="url(#mask0_75_2208)">
<path d="M15.9999 29.1002L14.5333 27.7669C12.311 25.7669 10.4777 24.0446 9.03325 22.6002C7.58881 21.1558 6.44436 19.8722 5.59992 18.7495C4.75547 17.6278 4.16659 16.6055 3.83325 15.6829C3.49992 14.7611 3.33325 13.8224 3.33325 12.8669C3.33325 10.978 3.97236 9.39442 5.25059 8.1162C6.52792 6.83886 8.11103 6.2002 9.99992 6.2002C11.1555 6.2002 12.2555 6.4722 13.2999 7.0162C14.3444 7.56108 15.2444 8.34464 15.9999 9.36686C16.7555 8.34464 17.6555 7.56108 18.6999 7.0162C19.7444 6.4722 20.8444 6.2002 21.9999 6.2002C23.8888 6.2002 25.4719 6.83886 26.7493 8.1162C28.0275 9.39442 28.6666 10.978 28.6666 12.8669C28.6666 13.8224 28.4999 14.7611 28.1666 15.6829C27.8333 16.6055 27.2444 17.6278 26.3999 18.7495C25.5555 19.8722 24.411 21.1558 22.9666 22.6002C21.5221 24.0446 19.6888 25.7669 17.4666 27.7669L15.9999 29.1002ZM15.9999 26.4002C18.1333 24.4891 19.8888 22.8446 21.2666 21.4669C22.6444 20.0891 23.7333 18.8944 24.5333 17.8829C25.3333 16.8722 25.8888 15.978 26.1999 15.2002C26.511 14.4224 26.6666 13.6446 26.6666 12.8669C26.6666 11.5335 26.2221 10.4224 25.3333 9.53353C24.4444 8.64464 23.3333 8.2002 21.9999 8.2002C20.9555 8.2002 19.983 8.5002 19.0826 9.1002C18.183 9.7002 17.4777 10.5335 16.9666 11.6002H15.0333C14.4999 10.5113 13.7888 9.6722 12.8999 9.08286C12.011 8.49442 11.0444 8.2002 9.99992 8.2002C8.66659 8.2002 7.55547 8.64464 6.66659 9.53353C5.7777 10.4224 5.33325 11.5335 5.33325 12.8669C5.33325 13.6446 5.48881 14.4224 5.79992 15.2002C6.11103 15.978 6.66659 16.8722 7.46659 17.8829C8.26659 18.8944 9.35548 20.0833 10.7333 21.4495C12.111 22.8166 13.8666 24.4669 15.9999 26.4002Z" fill="#FE7D00"/>
</g>
</svg>
