<svg width="32" height="32" viewBox="0 0 32 32" fill="none" xmlns="http://www.w3.org/2000/svg">
<mask id="mask0_72_354" style="mask-type:alpha" x="0" y="0" width="32" height="32">
<rect width="32" height="32" fill="#D9D9D9"/>
</mask>
<g mask="url(#mask0_72_354)">
<path d="M16 32.7262L14.5334 31.2859C12.3112 29.1254 10.4778 27.2649 9.03337 25.7045C7.58893 24.1442 6.44448 22.7576 5.60004 21.5448C4.7556 20.333 4.16671 19.2287 3.83337 18.232C3.50004 17.2363 3.33337 16.2223 3.33337 15.19C3.33337 13.1495 3.97249 11.4389 5.25071 10.0581C6.52804 8.67821 8.11115 7.98828 10 7.98828C11.1556 7.98828 12.2556 8.28211 13.3 8.86977C14.3445 9.4584 15.2445 10.3048 16 11.4091C16.7556 10.3048 17.6556 9.4584 18.7 8.86977C19.7445 8.28211 20.8445 7.98828 22 7.98828C23.8889 7.98828 25.472 8.67821 26.7494 10.0581C28.0276 11.4389 28.6667 13.1495 28.6667 15.19C28.6667 16.2223 28.5 17.2363 28.1667 18.232C27.8334 19.2287 27.2445 20.333 26.4 21.5448C25.5556 22.7576 24.4112 24.1442 22.9667 25.7045C21.5223 27.2649 19.6889 29.1254 17.4667 31.2859L16 32.7262ZM16 29.8095C18.1334 27.745 19.8889 25.9686 21.2667 24.4803C22.6445 22.9919 23.7334 21.7013 24.5334 20.6086C25.3334 19.5168 25.8889 18.5508 26.2 17.7106C26.5112 16.8704 26.6667 16.0302 26.6667 15.19C26.6667 13.7497 26.2223 12.5494 25.3334 11.5891C24.4445 10.6289 23.3334 10.1488 22 10.1488C20.9556 10.1488 19.9832 10.4729 19.0827 11.121C18.1832 11.7692 17.4778 12.6694 16.9667 13.8217H15.0334C14.5 12.6454 13.7889 11.7389 12.9 11.1023C12.0112 10.4666 11.0445 10.1488 10 10.1488C8.66671 10.1488 7.5556 10.6289 6.66671 11.5891C5.77782 12.5494 5.33337 13.7497 5.33337 15.19C5.33337 16.0302 5.48893 16.8704 5.80004 17.7106C6.11115 18.5508 6.66671 19.5168 7.46671 20.6086C8.26671 21.7013 9.3556 22.9857 10.7334 24.4615C12.1112 25.9384 13.8667 27.721 16 29.8095Z" fill="#878787"/>
</g>
</svg>
