<svg width="32" height="32" viewBox="0 0 32 32" fill="none" xmlns="http://www.w3.org/2000/svg">
<mask id="mask0_26_1052" style="mask-type:alpha" maskUnits="userSpaceOnUse" x="0" y="0" width="32" height="32">
<rect width="32" height="32" fill="#D9D9D9"/>
</mask>
<g mask="url(#mask0_26_1052)">
<path d="M18.5 17.9333C16.8889 17.9333 15.5139 17.3566 14.375 16.2033C13.2361 15.051 12.6667 13.6833 12.6667 12.0999C12.6667 10.4888 13.2361 9.11382 14.375 7.97493C15.5139 6.83605 16.8889 6.2666 18.5 6.2666C20.1111 6.2666 21.4861 6.83605 22.625 7.97493C23.7639 9.11382 24.3333 10.4888 24.3333 12.0999C24.3333 13.6833 23.7639 15.051 22.625 16.2033C21.4861 17.3566 20.1111 17.9333 18.5 17.9333ZM6 30.5999V26.8916C6 26.086 6.22222 25.336 6.66667 24.6416C7.11111 23.9472 7.70833 23.4055 8.45833 23.0166C10.0972 22.211 11.7572 21.6066 13.4383 21.2033C15.1183 20.801 16.8056 20.5999 18.5 20.5999C20.1944 20.5999 21.8822 20.801 23.5633 21.2033C25.2433 21.6066 26.9028 22.211 28.5417 23.0166C29.2917 23.4055 29.8889 23.9472 30.3333 24.6416C30.7778 25.336 31 26.086 31 26.8916V30.5999H6ZM8.5 28.0999H28.5V26.8916C28.5 26.5583 28.4028 26.2527 28.2083 25.9749C28.0139 25.6972 27.75 25.461 27.4167 25.2666C25.9722 24.5722 24.5072 24.0372 23.0217 23.6616C21.535 23.2872 20.0278 23.0999 18.5 23.0999C16.9722 23.0999 15.465 23.2872 13.9783 23.6616C12.4928 24.0372 11.0278 24.5722 9.58333 25.2666C9.25 25.461 8.98611 25.6972 8.79167 25.9749C8.59722 26.2527 8.5 26.5583 8.5 26.8916V28.0999ZM18.5 15.4333C19.4167 15.4333 20.2017 15.1066 20.855 14.4533C21.5072 13.801 21.8333 13.0166 21.8333 12.0999C21.8333 11.1833 21.5072 10.3983 20.855 9.74494C20.2017 9.09271 19.4167 8.7666 18.5 8.7666C17.5833 8.7666 16.7989 9.09271 16.1467 9.74494C15.4933 10.3983 15.1667 11.1833 15.1667 12.0999C15.1667 13.0166 15.4933 13.801 16.1467 14.4533C16.7989 15.1066 17.5833 15.4333 18.5 15.4333Z" fill="#FE7D00"/>
</g>
</svg>
