<svg width="32" height="32" viewBox="0 0 32 32" fill="none" xmlns="http://www.w3.org/2000/svg">
<mask id="mask0_72_357" style="mask-type:alpha" x="0" y="0" width="32" height="32">
<rect width="32" height="32" fill="#D9D9D9"/>
</mask>
<g mask="url(#mask0_72_357)">
<path d="M16 19.1758C14.7111 19.1758 13.6111 18.6775 12.7 17.6807C11.7889 16.685 11.3333 15.5029 11.3333 14.1346C11.3333 12.7423 11.7889 11.554 12.7 10.5697C13.6111 9.5855 14.7111 9.09338 16 9.09338C17.2889 9.09338 18.3889 9.5855 19.3 10.5697C20.2111 11.554 20.6667 12.7423 20.6667 14.1346C20.6667 15.5029 20.2111 16.685 19.3 17.6807C18.3889 18.6775 17.2889 19.1758 16 19.1758ZM6 30.1225V26.9177C6 26.2215 6.17778 25.5734 6.53333 24.9732C6.88889 24.3731 7.36667 23.905 7.96667 23.5689C9.27778 22.8727 10.6058 22.3503 11.9507 22.0018C13.2947 21.6542 14.6444 21.4804 16 21.4804C17.3556 21.4804 18.7058 21.6542 20.0507 22.0018C21.3947 22.3503 22.7222 22.8727 24.0333 23.5689C24.6333 23.905 25.1111 24.3731 25.4667 24.9732C25.8222 25.5734 26 26.2215 26 26.9177V30.1225H6ZM8 27.9619H24V26.9177C24 26.6296 23.9222 26.3655 23.7667 26.1255C23.6111 25.8854 23.4 25.6814 23.1333 25.5133C21.9778 24.9132 20.8058 24.4508 19.6173 24.1263C18.428 23.8027 17.2222 23.6409 16 23.6409C14.7778 23.6409 13.572 23.8027 12.3827 24.1263C11.1942 24.4508 10.0222 24.9132 8.86667 25.5133C8.6 25.6814 8.38889 25.8854 8.23333 26.1255C8.07778 26.3655 8 26.6296 8 26.9177V27.9619ZM16 17.0153C16.7333 17.0153 17.3613 16.733 17.884 16.1684C18.4058 15.6047 18.6667 14.9268 18.6667 14.1346C18.6667 13.3424 18.4058 12.664 17.884 12.0994C17.3613 11.5357 16.7333 11.2539 16 11.2539C15.2667 11.2539 14.6391 11.5357 14.1173 12.0994C13.5947 12.664 13.3333 13.3424 13.3333 14.1346C13.3333 14.9268 13.5947 15.6047 14.1173 16.1684C14.6391 16.733 15.2667 17.0153 16 17.0153Z" fill="#878787"/>
</g>
</svg>
