<svg width="24" height="26" viewBox="0 0 24 26" fill="none" xmlns="http://www.w3.org/2000/svg">
<path d="M17.6137 16.6613C19.0661 14.5965 19.7166 12.0366 19.4351 9.49358C19.1536 6.9506 17.9608 4.61212 16.0954 2.946C14.23 1.27987 11.8295 0.408976 9.37425 0.507538C6.91897 0.6061 4.58995 1.66685 2.85314 3.47758C1.11633 5.28831 0.0998188 7.71547 0.00696954 10.2735C-0.0858797 12.8315 0.751782 15.3317 2.35237 17.2739C3.95296 19.2161 6.19843 20.4571 8.63955 20.7485C11.0807 21.04 13.5374 20.3605 15.5183 18.8459H15.5168C15.5618 18.9084 15.6098 18.9678 15.6638 19.0256L21.4385 25.0418C21.7198 25.335 22.1013 25.4999 22.4992 25.5C22.8971 25.5001 23.2788 25.3356 23.5602 25.0426C23.8417 24.7496 23.9999 24.3521 24 23.9376C24.0001 23.523 23.8422 23.1254 23.561 22.8322L17.7862 16.816C17.7326 16.7594 17.6749 16.7072 17.6137 16.6597V16.6613ZM18.0007 10.6544C18.0007 11.7831 17.7873 12.9007 17.3727 13.9434C16.9581 14.9862 16.3504 15.9336 15.5844 16.7317C14.8183 17.5298 13.9089 18.1629 12.908 18.5948C11.9071 19.0267 10.8343 19.249 9.75098 19.249C8.66762 19.249 7.59486 19.0267 6.59396 18.5948C5.59306 18.1629 4.68362 17.5298 3.91757 16.7317C3.15151 15.9336 2.54385 14.9862 2.12926 13.9434C1.71468 12.9007 1.50129 11.7831 1.50129 10.6544C1.50129 8.37496 2.37045 6.18888 3.91757 4.57708C5.46469 2.96527 7.56303 2.05977 9.75098 2.05977C11.9389 2.05977 14.0373 2.96527 15.5844 4.57708C17.1315 6.18888 18.0007 8.37496 18.0007 10.6544V10.6544Z" fill="#FE7D00"/>
</svg>
